<?xml version="1.0" encoding="UTF-8"?>
<svg id="Layer_1" xmlns="http://www.w3.org/2000/svg" version="1.1" viewBox="0 0 4000 4000">
  <!-- Generator: Adobe Illustrator 29.0.0, SVG Export Plug-In . SVG Version: 2.1.0 Build 186)  -->
  <defs>
    <style>
      .st0 {
        fill: #ff8080;
      }

      .st1 {
        fill: #000072;
      }

      .st2 {
        fill: #232333;
      }

      .st3 {
        fill: #ff67a0;
      }

      .st4 {
        fill: #fff3e9;
      }

      .st5, .st6 {
        fill: #fff;
      }

      .st7 {
        opacity: .25;
      }

      .st8 {
        fill: #b199c5;
      }

      .st9 {
        opacity: .4;
      }

      .st10 {
        fill: #f9d3b7;
      }

      .st11 {
        fill: #ff981d;
      }

      .st12 {
        fill: #ff9343;
      }

      .st13 {
        fill: #0096f0;
      }

      .st14 {
        fill: #512717;
      }

      .st15 {
        fill: #64dbff;
      }

      .st16 {
        opacity: .2;
      }

      .st17 {
        fill: #dc9afe;
      }

      .st18 {
        fill: #f8d2b6;
      }

      .st19 {
        opacity: .35;
      }

      .st6 {
        stroke: #000;
        stroke-miterlimit: 10;
        stroke-width: 4.3px;
      }

      .st20 {
        fill: #ffad40;
      }

      .st21 {
        fill: #390075;
      }

      .st22 {
        fill: #eaeaea;
      }

      .st23 {
        fill: #ff6a1f;
      }

      .st24 {
        opacity: .5;
      }
    </style>
  </defs>
  <rect class="st17" width="4000" height="4000"/>
  <g>
    <g class="st16">
      <ellipse class="st1" cx="2072.98" cy="3462.91" rx="1096.01" ry="147.92"/>
    </g>
    <g>
      <path class="st15" d="M2886.62,1502.38c0,398.92-343.1,772.43-608.49,848.7-193.64,92.94-680.05,62.49-863.75-22.65-459.02-212.76-519.6-493.96-519.6-826.04,0-550.03,445.89-995.92,995.92-995.92s995.92,445.89,995.92,995.92Z"/>
      <g class="st16">
        <path class="st1" d="M2792.07,1498.08c0,361.07-310.54,699.12-550.71,768.11-175.26,84.14-615.49,56.6-781.75-20.49-391.63-181.55-462.78-418.1-469.66-696.4,69.98,80.06,170.1,153.44,312.69,219.55,166.27,77.04,606.49,104.59,781.75,20.49,240.17-69.04,550.71-407.08,550.71-768.11,0-10.85-.17-21.61-.56-32.37,99.38,144.88,157.53,320.27,157.53,509.22Z"/>
      </g>
      <path class="st5" d="M1363.84,2768.67s-14.23,355.99-24.83,486.57c-65.01,25.41-91.8,73.83-88.49,120.12,3.72,51.98,46.62,79.01,112.95,83.98,72.73,5.45,198.5,5.92,241.53-26.5,113.71-85.66,133.26-688.47,133.26-688.47"/>
      <g class="st16">
        <path class="st1" d="M1704.55,3130.36c-20.06,136.91-51.35,266.12-99.55,302.49-43.04,32.41-168.81,31.94-241.55,26.47-66.33-4.95-109.19-31.98-112.94-83.97-1.21-16.79,1.55-33.87,8.74-50.06,4.99,50.1,47.56,76.23,112.64,81.13,72.74,5.42,198.51,5.9,241.55-26.51,41.92-31.59,71.06-133.47,91.12-249.55Z"/>
      </g>
      <g>
        <path class="st5" d="M3249.01,2900.15c62,278.89-140.48,619.04-553.86,537.96-291.67-57.26-478.64-487.76-478.64-487.76l142.75-63.68c48.63,89.33,105.29,145.82,162.38,177.79,11.66,6.55,23.34,12.08,35,16.61,66.23,26.02,130.91,21.17,181.78-1.38,60.53-26.75,101.65-78.39,103.14-132.68.91-33.42-21.22-67.03-57.42-58.13-49.89,12.27-36.82,74.92-74.51,80.69-33.32,5.1-78.89-40.61-96.81-94.17-1.73-5.2-3.28-10.41-4.56-15.57-1.24-4.89-2.28-9.75-3.11-14.59-33.31-187.49,211.88-340.96,437.24-220.47,114,60.93,181.72,163.22,206.63,275.38Z"/>
        <g class="st16">
          <path class="st1" d="M2737.99,3079.94c.16-.1.28-.15.44-.25,60.53-26.75,101.65-78.39,103.14-132.68.91-33.42-21.22-67.03-57.42-58.13-49.89,12.27-36.82,74.92-74.51,80.69-33.32,5.1-78.89-40.61-96.81-94.17-1.73-5.2-3.28-10.41-4.56-15.57-1.24-4.89-2.28-9.75-3.11-14.59,10.82,38.41,56.57,90.48,87.9,60.08,23.45-22.78,78-158.9,175.66-92.71,72.6,49.2,29.32,246.64-130.71,267.33Z"/>
        </g>
        <g class="st16">
          <path class="st1" d="M3249.01,2900.15c62,278.89-140.48,619.04-553.86,537.96-291.67-57.26-478.64-487.76-478.64-487.76l142.75-63.68c48.63,89.33,105.29,145.82,162.38,177.79,11.66,6.55,23.34,12.08,35,16.61,51.24,126.74,158.37,198.29,318.91,196.95,247.73-2.07,378.07-204.46,373.45-377.86Z"/>
        </g>
        <path class="st21" d="M2814.58,3466.98c-39.58,0-80.6-4.1-122.69-12.36-123.51-24.23-247.69-118.28-359.1-271.99-83.33-114.95-129.82-221.14-131.76-225.6-3.71-8.54.21-18.46,8.75-22.17,8.54-3.71,18.47.21,22.18,8.74,1.84,4.23,186.91,423.1,466.43,477.94,291.82,57.25,458.92-99.36,517.96-265.03,62.42-175.14,19.97-408.92-181.93-516.87-132.85-71.03-267.55-39.26-342.12,23.74-64.78,54.73-88.52,131.98-63.5,206.65,16.27,48.6,56.66,86.18,78.31,82.88,7.66-1.17,11.29-8.05,18.34-24.66,8.46-19.93,20.05-47.23,54.65-55.74,18.77-4.63,37.02-.82,51.32,10.71,17.35,13.98,27.7,38.6,27.01,64.25-1.95,72.55-66.53,140.39-153.56,161.31-50.57,12.15-226.06,32.64-360.4-214.07-4.45-8.18-1.43-18.41,6.74-22.87,8.16-4.46,18.41-1.44,22.87,6.74,122.87,225.65,278.2,208.13,322.92,197.41,72.46-17.41,126.18-71.85,127.73-129.43.41-15.12-5.27-29.68-14.46-37.09-6.18-4.98-13.41-6.36-22.12-4.22-17.33,4.26-23.33,16.52-31.67,36.17-7.69,18.12-17.26,40.68-44.28,44.81-45.54,6.98-96.43-48.92-115.38-105.5-29.56-88.25-2-179.14,73.72-243.11,83.26-70.34,232.98-106.2,379.78-27.72,218.71,116.94,265.05,369.18,197.79,557.92-36.25,101.72-105.09,186.24-193.84,237.97-69.61,40.58-151.02,61.18-239.69,61.18Z"/>
      </g>
      <path class="st21" d="M1338.55,3238.42c77.53-13.38,155.43,13.79,218.07,58.48-49.14-23.89-103.95-40.41-158.75-35.34-17.7,1.5-34.83,5.23-51.9,10.48-23.83,6.27-31.74-29.24-7.42-33.63h0Z"/>
      <path class="st21" d="M1440.57,3479.45c-33.4,0-62.46-1.75-78.39-2.94-106.45-7.97-126.41-66.02-128.83-99.92-4.01-56.02,29.99-106.23,89.32-133.14,10.35-136.33,23.83-472,23.97-475.47.38-9.5,8.27-16.92,17.89-16.51,9.5.38,16.89,8.39,16.51,17.89-.14,3.56-14.37,357.83-24.87,487.27-.53,6.56-4.76,12.25-10.89,14.64-51.75,20.23-80.75,58.68-77.59,102.86,2.9,40.54,35.55,63.44,97.06,68.04,90.23,6.76,196.28,2.24,229.89-23.08,87.86-66.19,121.04-509.9,126.41-675.28.31-9.5,8.25-17.05,17.76-16.65,9.51.31,16.96,8.26,16.65,17.77-.05,1.51-5.13,153.29-24.1,313.58-26.29,222.14-64.23,349.08-116.01,388.09-35.61,26.82-112.7,32.85-174.79,32.86Z"/>
      <path class="st13" d="M1432.76,3029.15c-108.44-63.61-194.09-520.48-19.57-660.57,145.29-116.62,205.73,98.41,205.73,98.41,0,0-143.19,172.31-186.16,562.16Z"/>
      <path class="st21" d="M1432.76,3042.28c-2.3,0-4.6-.6-6.65-1.8-59.4-34.85-112.61-176.25-123.77-328.92-11.88-162.6,25.52-291.34,102.62-353.23,42.04-33.75,82.09-44.85,119.09-32.99,74.64,23.93,106.21,133.44,107.51,138.09,1.17,4.16.22,8.63-2.54,11.95-1.4,1.69-141.25,174.59-183.2,555.2-.49,4.43-3.18,8.31-7.16,10.3-1.86.93-3.88,1.4-5.89,1.4ZM1494.96,2347.09c-22.6,0-47.24,10.61-73.55,31.73-70.25,56.4-104.1,176.98-92.86,330.83,9.26,126.74,48.84,247.88,93.91,294.43,41.72-339.31,157.11-507.12,181.85-539.75-7.44-22.23-36.08-97.28-88.32-113.98-6.79-2.17-13.8-3.25-21.03-3.25Z"/>
      <g>
        <path class="st5" d="M1905.94,2456.18l50.88,81.86,455.56,733.11s292.52-95.64,333.53-239.63c14.56-51.15-12.09-168.18-56.86-293.07-58.77-164.11-148.86-341.73-217.81-401.22-107.03-92.3-471.71,66.83-565.31,118.94Z"/>
        <path class="st21" d="M2412.41,3288.39c-7.24,0-13.98-4.61-16.36-11.87-2.95-9.04,1.97-18.76,11.01-21.72,2.84-.93,284.28-94.48,322.29-228,14.14-49.65-17.46-186.77-78.62-341.19-62.43-157.61-137.29-289.23-190.73-335.32-90.52-78.08-427.05,54.87-545.68,120.91-8.3,4.62-18.79,1.64-23.42-6.67-4.62-8.31-1.64-18.79,6.67-23.42,72.03-40.1,463.42-221.7,584.92-116.9,69.58,60.02,149.07,219.49,200.25,348.71,51.52,130.06,99.52,293.8,79.73,363.3-43.01,151.06-332.4,247.28-344.7,251.3-1.78.58-3.58.86-5.36.86Z"/>
        <path class="st5" d="M2489.83,2755.3c5.65,23.46,18.37,58.49,33.91,94.48,28.81,66.71,67.26,136.71,88.12,142.71,54.42,15.56,127.67-8.74,154.08-62.99,12.04-24.75,2.03-78.53-16.61-132.58-22.82-66.16-58.55-132.74-82.43-146.88-31.24-18.52-151.75,53.41-151.75,53.41-15.92,14.9-29.71,33.52-25.32,51.85Z"/>
        <g class="st16">
          <path class="st1" d="M2523.74,2849.77c28.81,66.71,67.26,136.71,88.12,142.71,54.42,15.56,127.67-8.74,154.08-62.99,12.04-24.75,2.03-78.53-16.61-132.58,3,31.88,1.17,81.39-35.8,97.42-78.34,33.94-127.19-92.04-127.19-92.04,0,0,.96,126.79-62.6,47.49Z"/>
        </g>
        <path class="st21" d="M2645.61,3014.16c-13.44,0-26.49-1.71-38.51-5.15-46.61-13.35-120.87-194.87-134-249.71-5.21-21.74,4.98-44.76,30.28-68.41l1.35-1.26,1.58-.94c38.87-23.22,133.19-74.91,169.38-53.46,29.5,17.48,63.23,84.96,83.14,137.43,13.52,35.61,42.78,122.92,22.59,164.37-24.83,50.97-83.25,77.13-135.82,77.14ZM2525.58,2717.29c-14.25,13.65-20.99,25.68-18.99,33.99,17.17,71.68,87.29,214.52,110.35,224.75,44.29,12.68,110.28-6.34,133.54-54.08,21.29-43.72-54.35-234.54-92.32-257.09-12.48-6.37-75.39,18.52-132.57,52.43Z"/>
        <path class="st21" d="M2566.69,2750.54c25.1,48.35,80.45,222.82,150.47,200.99,9.57-3.35,18.84-10.27,27.34-18.55,6.79-6.81,17.87-6.75,24.57.15,7.16,7.25,6.32,19.4-1.73,25.62-24.11,19.53-55.74,31.88-86.34,16.93-67.22-36.22-89.5-157.73-114.3-225.14h0Z"/>
        <path class="st21" d="M2305.58,2408.82c44.51-45.89,110.98-85.66,177-66.46,9.88,2.78,19.2,7.16,28.23,12.06,8.39,4.55,11.5,15.05,6.95,23.44-5.01,9.48-17.9,11.97-26.14,5.15-56.25-45.35-134.75-12.47-186.04,25.8h0Z"/>
      </g>
      <path class="st5" d="M2447.65,2668.15c104.39,126.49,178.76,265.21,179.41,458.38.45,133.68-53.05,317.68-225.08,335.12-93.03,0-534.66,49.75-671.08-106.64-96.26-39.45-654.94-417.72-194.54-1239.43,85.94-153.38,682.83-210.24,646.52,32.27-30.65,204.73,155.46,387.84,264.77,520.3Z"/>
      <path class="st5" d="M2627.05,3126.53c.47,133.69-53.03,317.69-225.06,335.12-93.05,0-534.66,49.76-671.09-106.66-62.45-25.61-319.75-193.94-366.75-533.58-25.44-183.7,10.63-417.46,172.21-705.83,85.95-153.4,682.85-210.25,646.52,32.28-30.65,204.7,155.46,387.84,264.79,520.28,104.37,126.5,178.75,265.22,179.4,458.39Z"/>
      <g class="st16">
        <path class="st1" d="M2627.05,3126.53c.47,133.69-53.03,317.69-225.06,335.12-93.05,0-534.66,49.76-671.09-106.66-62.45-25.61-319.75-193.94-366.75-533.58,78.76,51.09,222.82,102.39,396.15-29.48,0,0,172.68-18.25,309.25,129.64,136.57,147.85,454.21,382.68,557.51,204.96Z"/>
      </g>
      <path class="st21" d="M2171.63,3486.49c-164.39,0-361.9-19.17-451.03-117.15-65.02-28.55-253.42-156.24-338.91-401.33-87.24-250.14-40.26-539.77,139.63-860.84,30.53-54.49,120.78-101.41,241.41-125.51,117.74-23.52,237.22-20.75,319.59,7.43,86.94,29.75,128.7,87.04,117.58,161.31-25.67,171.5,108.91,328.62,217.06,454.86,15.57,18.18,30.28,35.34,43.96,51.93h0c84.98,102.97,182.61,249.36,183.35,469.28.51,151.22-62.19,334.22-240.56,352.3-.58.06-1.16.09-1.74.09-13.02,0-33.49,1.03-59.39,2.32-45.93,2.3-105.85,5.31-170.95,5.31ZM1919.09,2000.12c-153.8,0-327.03,51.26-367.71,123.88-174.86,312.09-221.01,592.24-137.16,832.67,84.45,242.14,276.42,363.23,323.21,382.41,2.48,1.02,4.68,2.6,6.45,4.61,111.21,127.47,451.63,110.4,596.99,103.11,25.83-1.3,46.34-2.32,60.22-2.37,154.81-16.26,209.22-181.27,208.76-317.84-.56-165.28-53.05-299.13-175.47-447.48h0c-13.49-16.35-28.1-33.4-43.56-51.45-112.7-131.56-252.96-295.3-224.96-482.36,8.62-57.6-23.23-99.19-94.67-123.64-43.35-14.83-96.46-21.55-152.09-21.55Z"/>
      <path class="st18" d="M1860.59,3392.36s.08.12.2.39c-.12-.24-.2-.39-.2-.39Z"/>
      <path class="st6" d="M1525,2317.72"/>
      <g>
        <path class="st5" d="M1379.81,2889.89s-49.26,63.14-40.83,95.65c21.65,83.53,171.6,173.31,322.13,229.15,86.97,32.26,219.47,0,219.47,0,0,0-28.83-287.83-114.38-309.22-9.07-2.27-224.1,9.3-386.39-15.59Z"/>
        <path class="st21" d="M1757.02,3246.29c-34.36,0-70.62-3.85-101.9-15.45-144.6-53.64-307.96-145.11-332.81-240.98-10.05-38.76,34.83-98.9,43.93-110.56,3.83-4.91,10.03-7.37,16.18-6.43,123.75,18.98,280.95,16.47,348.09,15.4,31.61-.5,35.85-.5,39.87.5,42.79,10.7,76.1,68.04,101.83,175.32,17.96,74.91,25.2,145.9,25.49,148.89.86,8.54-4.71,16.41-13.06,18.44-3.68.9-62.18,14.86-127.63,14.86ZM1387.48,2908.42c-16.73,23.48-35.65,58.06-31.84,72.8,17.46,67.36,142.62,154.7,311.45,217.33,64.6,23.97,158.7,9.49,194.68,2.52-12.44-106.5-48.07-264.04-98.76-278.63-4.05-.18-17.63.03-31.96.26-66.16,1.05-218.74,3.49-343.57-14.28ZM1762.04,2922.18s.05.01.08.02c-.02,0-.05-.01-.08-.02Z"/>
      </g>
      <path class="st5" d="M1338.97,2985.54s106.5,250.81,167.44,279.61c117.82,55.68,297.76,12.51,297.76,12.51,0,0-35.63-250.09-92.35-265.03-9.04-2.38-214.32,12.43-372.85-27.09Z"/>
      <path class="st5" d="M1804.19,3277.65s-179.95,43.17-297.8-12.48c-19.11-9.04-42.74-39.94-66.11-78.12-51.18-83.46-101.32-201.52-101.32-201.52,158.52,39.55,363.83,24.71,372.86,27.12,26.21,6.89,47.9,64,63.66,123.44,18.38,69.21,28.71,141.56,28.71,141.56Z"/>
      <g class="st16">
        <path class="st1" d="M1804.19,3277.65s-179.95,43.17-297.8-12.48c-19.11-9.04-42.74-39.94-66.11-78.12,28.45,23.76,69.34,47.17,116.34,41.96,97.7-10.8,70.29-89.44,70.29-89.44l124.69-27.72,23.89,24.23c18.38,69.21,28.71,141.56,28.71,141.56Z"/>
      </g>
      <path class="st21" d="M1659.43,3310.94c-52.82,0-111.28-7.03-160.38-30.23-64.99-30.71-164.77-262.16-175.93-288.45-2.55-6.01-1.49-12.94,2.75-17.91,4.24-4.97,10.93-7.1,17.26-5.52,125.1,31.19,282.71,27.88,342.06,26.63,23.06-.49,27.01-.54,31.02.52,19.45,5.12,48.89,26.31,79.77,150.62,16.03,64.5,24.87,126.05,25.24,128.64,1.25,8.79-4.39,17.1-13.03,19.17-4.53,1.09-70.43,16.54-148.75,16.54ZM1368.33,3009.71c42.43,94.55,109.49,222.89,145.43,239.87,91.43,43.2,225.65,23.14,270.88,14.55-3.67-22.53-11.28-65.8-22.14-109.46-26.65-107.17-49.06-122.84-54.19-125.08-3.54-.11-12.72.09-22.39.3-55.45,1.18-195,4.1-317.59-20.18Z"/>
      <path class="st11" d="M1768.41,3130.28c4.39,17.27.53,32.72-9.12,43.02-7.67,8.2-43.06,38.38-43.06,38.38l-89.34-90.41s28.9-24.54,39.13-34.84c7.65-7.7,18.68-12.31,31.96-12.31,31.01,0,62.55,25.14,70.44,56.15Z"/>
      <path class="st21" d="M1716.23,3224.82c-3.4,0-6.79-1.31-9.35-3.9l-89.34-90.41c-2.57-2.6-3.94-6.15-3.78-9.81.16-3.65,1.84-7.07,4.62-9.44.29-.24,28.6-24.3,38.31-34.08,10.37-10.44,25.03-16.19,41.28-16.19,37.21,0,73.74,29.02,83.16,66.05h0c5.36,21.06.89,41.19-12.26,55.24-7.95,8.49-40.44,36.26-44.13,39.4-2.47,2.1-5.5,3.14-8.52,3.14ZM1646.14,3122.06l70.83,71.67c11.85-10.24,28.26-24.63,32.74-29.41,6.9-7.37,9.08-18.6,5.98-30.8h0c-6.38-25.07-32.81-46.25-57.71-46.25-9.33,0-17.16,2.92-22.64,8.43-6.48,6.52-19.73,18.17-29.2,26.37Z"/>
      <path class="st11" d="M1729.67,3164.71c7.89,31.01-10.86,56.15-41.87,56.15s-62.55-25.14-70.44-56.15c-7.89-31.01,10.86-56.15,41.87-56.15s62.55,25.14,70.44,56.15Z"/>
      <path class="st11" d="M1707.57,3168.79c6.09,18.56-4.02,32.5-22.58,31.13-18.56-1.37-38.55-17.52-44.63-36.08-6.09-18.56,4.02-32.5,22.58-31.13s38.55,17.52,44.63,36.08Z"/>
      <path class="st23" d="M1684.97,3199.92c-18.25-1.33-37.83-16.96-44.29-35.12,8.13,6.59,17.82,11.02,27.2,11.71,18.55,1.38,28.67-12.57,22.55-31.12-.09-.3-.21-.65-.34-.95,8.01,6.54,14.5,15.19,17.47,24.36,6.11,18.55-4,32.5-22.6,31.12Z"/>
      <path class="st21" d="M1687.8,3234c-37.22,0-73.75-29.01-83.17-66.05-4.85-19.07-1.5-37.89,9.18-51.63,10.48-13.48,26.61-20.9,45.42-20.9,37.22,0,73.75,29.01,83.17,66.05h0c4.85,19.07,1.5,37.89-9.18,51.63-10.48,13.47-26.61,20.9-45.42,20.9ZM1659.23,3121.7c-10.52,0-19.29,3.82-24.68,10.75-5.75,7.4-7.33,17.71-4.45,29.02,6.37,25.07,32.8,46.25,57.7,46.25,10.52,0,19.29-3.82,24.68-10.75,5.75-7.4,7.34-17.71,4.46-29.02h0c-6.38-25.07-32.8-46.25-57.71-46.25Z"/>
      <path class="st13" d="M2049.13,2965.83s301.35-149.51,377.67-320.94c71.56-14.18,92.4,52.02,78.52,99.48-48.01,164.14-321.2,325.85-473.18,343.25-145.13,16.61,17-121.78,17-121.78Z"/>
      <path class="st21" d="M2010.76,3106.28c-19.89,0-44.45-4.16-53.3-24.49-17.28-39.72,50.53-103.48,80.49-129.05,1.07-.92,2.26-1.7,3.53-2.33,2.95-1.47,296.7-148.78,369.59-312.52,2.28-5.11,6.89-8.8,12.38-9.89,41.89-8.31,66.61,7.33,79.94,21.91,21.52,23.53,28.93,63.43,18.44,99.29-50.06,171.15-330.95,337.57-487.75,355.52-5.13.59-13.68,1.57-23.33,1.57ZM1989.06,3068.09c.09,0,6.97,6.32,41.12,2.42,144.41-16.53,412.91-174.71,458.62-330.97,7.12-24.35,2.68-51.64-10.8-66.38-9.25-10.11-22.54-14.34-39.49-12.64-80.95,165.91-351.65,305.6-379.77,319.76-43.29,37.35-72.93,77.67-69.68,87.82h0ZM1989.06,3068.09h.05-.05Z"/>
      <g>
        <path class="st5" d="M2501.22,2913.94c-72.18-107.65-249.87-113.83-330.84,7.01-89.29,133.25,11.42,340.34,40.33,367.67-13.83,7.39-83.37,23.93-79.5,103.78,3.68,76.01,82.34,90.02,106.16,90.02s167.28,10.23,224.51-6.78c75.56-22.45,120.76-120.29,45.73-329.06"/>
        <g class="st16">
          <path class="st1" d="M2235.49,3258.63s101.05,10.57,116.35,14.11c26.4,6.12-23.91-167.54-111.27-169.49-69.61-1.55-48.57,93.77-5.07,155.38Z"/>
        </g>
        <g class="st16">
          <path class="st1" d="M2461.86,3475.64c-57.2,17-200.7,6.8-224.5,6.8s-102.48-14.03-106.14-90.04c-.47-9.99.17-18.98,1.72-27.07,19.07,51.22,80.1,61.59,100.54,61.59,23.84,0,167.3,10.2,224.55-6.8,47.6-14.12,83.2-58.28,84.15-141.26,16.87,119.31-22.98,179.74-80.32,196.78Z"/>
        </g>
        <path class="st21" d="M2501.22,2913.94c-58.89-75.22-173.3-92.21-253.52-44.05-116.6,68.65-106.94,215.02-64.91,326.61,9.35,25.09,20.12,50.01,34.43,72.51,2.36,3.51,4.15,5.92,6.19,8.02,6.44,6.84,6.12,17.6-.71,24.04-5.46,4.62-12.3,6.18-18.09,8.89-11.23,4.69-22.4,10.62-31.31,18.34-34.99,29.14-34.06,92.62,5.14,117.93,15.63,10.61,36.59,17.1,56.15,18.02,8.67.03,32.59.76,41.59,1.04,54.46,1.11,109.55,3.08,162.96-4.14,53.07-5.7,81.58-48.6,88.71-98.87,10.77-70.96-5.6-145.03-20.22-215.69,40.74,81.4,75.84,190.46,36.99,278.83-31.23,66.51-90.41,76.87-157.11,78.68-37.98,1.32-75.49.04-112.77-1.79-9.28-.49-32.89-1.67-41.89-1.91-26.6-2.06-51.7-9.74-74.47-25.22-56.87-37.47-59.5-130.29-7.48-173.01,15.13-13.32,33.7-21.28,51.7-28.72,0,0-3.71,27.69-3.71,27.69-24.77-25.86-38.6-58.53-52.28-90.79-36.6-93.92-51.28-209.73,8.57-297.89,39.21-58.02,108.71-93.6,178.19-91.9,66.87.32,135.47,34.45,167.86,93.39h0Z"/>
        <path class="st21" d="M2378.24,3304.25c-27.82-6.01-55.97-9.86-83.68-9.73-27.73.03-54.84,4.16-81.26,11.13-9.25,2.44-18.72-3.08-21.16-12.33-2.91-10.5,5.11-21.35,15.97-21.71,29.55-1.66,59.5-.08,88.16,5.78,28.71,5.75,55.93,15.41,81.96,26.86h0Z"/>
      </g>
      <g>
        <path class="st5" d="M1760.29,2791.94s-14.4,349.36-25,479.94c-62.15,28.94-91.63,80.46-88.32,126.75,3.72,51.98,46.62,79.01,112.95,83.98,72.73,5.45,198.5,5.92,241.53-26.5,113.71-85.66,133.26-688.47,133.26-688.47"/>
        <g class="st16">
          <path class="st1" d="M1778.25,3242.86c9.89,10.56,30.47,3.96,69.67,13.26,33.25,7.89,63.57,24.03,78.21,8.63,32.78-34.48-29.06-152.22-91.09-141.15-50.34,8.99-67.7,107.59-56.78,119.26Z"/>
        </g>
        <g class="st16">
          <path class="st1" d="M2069.56,3314.91c-17.7,67.37-40.04,120.08-68.13,141.19-43.03,32.4-168.8,31.98-241.53,26.52-66.32-4.98-109.21-32.02-112.91-83.97-.81-11.39.33-23.06,3.51-34.63,11.96,39.42,51.85,60.35,109.4,64.66,72.73,5.46,198.5,5.88,241.53-26.52,18.5-13.9,34.49-41.51,48.34-78,6.97-2.47,13.57-5.65,19.78-9.25Z"/>
        </g>
        <path class="st21" d="M1760.29,2791.94c20.31,162.61,2.94,325.35-7.67,487.96-.54,6.79-4.95,12.33-10.9,14.65-22.59,8.82-43.09,22.01-57.34,39.77-14.29,17.62-21.75,39.83-20.29,62.09.75,35.59,30.82,56.81,63.39,63.89,37.04,8.11,76.64,7.36,114.56,7.87,26.01-.22,52-1.39,77.31-4.6,34.73-5.16,71.83-9.72,90.53-43.01,32.68-54.68,45.09-119.91,57.56-182.14,29.29-156.17,38.39-313.49,67.24-470.78,8.58,79.7,7,159.97,1.29,239.75-9.57,122.3-33.19,328.6-96.9,432.22-24.77,41.89-70.58,52.45-115.37,58.11-27.31,3.45-54.4,4.64-81.42,4.87-41.3-.55-82.3.25-123.01-8.85-69.23-15.35-105.45-71.91-83.67-140.89,13.71-43.42,53.2-75.19,93.57-90.38.03-.03-10.88,14.64-10.88,14.64,12.77-161.83,7.75-325.44,41.99-485.17h0Z"/>
        <path class="st21" d="M1731.75,3261.69c77.53-13.38,155.44,13.79,218.07,58.48-49.14-23.89-103.95-40.41-158.75-35.34-17.7,1.5-34.83,5.23-51.9,10.48-23.82,6.27-31.75-29.24-7.42-33.63h0Z"/>
      </g>
      <g>
        <path class="st5" d="M1746.68,3092.71s181.65-72.67,356.3,46.87"/>
        <path class="st21" d="M2102.97,3152.49c-2.51,0-5.05-.73-7.29-2.26-166.59-114.03-342.47-46.22-344.22-45.53-6.63,2.63-14.13-.6-16.77-7.21-2.64-6.62.58-14.12,7.19-16.77,7.67-3.07,190.1-73.84,368.39,48.2,5.88,4.03,7.39,12.06,3.36,17.95-2.5,3.65-6.55,5.62-10.66,5.62Z"/>
      </g>
      <path class="st22" d="M1751.52,2993.3c-61.44-82.1-13.26-528.49,139.19-570.89,179.49-49.93,101.19,44.58,101.19,44.58,0,0-197.42,136.46-240.38,526.31Z"/>
      <path class="st13" d="M1991.89,2466.97s-128.56,88.88-200.74,327.97c-17.3,57.24-31.33,123.05-39.64,198.33-21.43-28.67-29.53-101.66-24.49-186.37,9.38-158.05,64.43-356.9,163.69-384.53,179.48-49.93,101.19,44.59,101.19,44.59Z"/>
      <g class="st7">
        <path class="st21" d="M1791.15,2794.95c-17.3,57.24-31.33,123.05-39.64,198.33-21.43-28.67-29.53-101.66-24.49-186.37,16.1,10.72,38.13,13.95,64.13-11.97Z"/>
      </g>
      <path class="st21" d="M1751.52,3010.51c-5.34,0-10.48-2.49-13.78-6.9-44.34-59.25-36.71-274.57,15.13-426.63,33.04-96.92,79.11-156.11,133.23-171.16,77.2-21.48,118.66-20.22,134.42,4.07,17.15,26.46-9.78,61.35-15.36,68.08-1.01,1.21-2.17,2.28-3.47,3.18-1.88,1.31-191.59,137.76-233.06,514.04-.78,7.02-5.77,12.86-12.58,14.72-1.5.41-3.02.61-4.53.61ZM1972.67,2425.08c-13.97,0-37.7,2.88-77.34,13.91-42.07,11.7-81.08,64.65-109.87,149.1-36.64,107.49-48.76,241.15-39.86,324.69,55.8-317.46,212.79-442.54,234.33-458.38,7.74-10.06,12.92-22.52,11.65-25.86-.02,0-3.64-3.45-18.91-3.45Z"/>
      <path class="st20" d="M2041.19,1018.85c200.48-164.32,437.77-255.56,527.79-201.95,71.51,42.58,66.42,317.37-93.61,750.39"/>
      <path class="st20" d="M2475.37,1567.31l-434.2-548.44c1.67-1.34,3.3-2.73,4.98-4.07,199.44-161.77,433.54-251.05,522.84-197.91,11.03,6.58,20.22,18.64,27.33,36.01,38.93,95.11,14.4,348.15-120.94,714.41Z"/>
      <path class="st20" d="M2481.67,1550.12c-2.06,5.66-4.18,11.42-6.3,17.18l-135.23-170.83-298.97-377.61c1.67-1.34,3.3-2.73,4.98-4.07,199.44-161.77,433.54-251.05,522.84-197.91,11.03,6.58,20.22,18.64,27.33,36.01.13.26.21.57.34.84,37.84,94.21,14.45,340.45-114.98,696.38Z"/>
      <g class="st24">
        <path class="st5" d="M2596.31,852.9c-.59-.3-1.07-.54-1.46-.82-88.14-61.56-328.54,13.7-521.84,196.82l-26.87-34.1c199.44-161.77,433.54-251.05,522.84-197.91,11.03,6.58,20.22,18.64,27.33,36.01Z"/>
      </g>
      <path class="st12" d="M2481.67,1550.12l-141.54-153.65c-8.27-75.25-9.52-186.56,33.29-283.61,62.48-141.45,144.11-284.34,223.23-259.13,37.84,94.21,14.45,340.45-114.98,696.38Z"/>
      <path class="st21" d="M2475.37,1584.8c-2.02,0-4.07-.35-6.07-1.09-9.07-3.35-13.71-13.42-10.35-22.49,163.12-441.41,156.74-696.13,101.06-729.28-82.59-49.2-315.13,42.6-507.73,200.45-7.48,6.13-18.51,5.04-24.64-2.44-6.13-7.48-5.04-18.51,2.44-24.64,209.89-172.03,450.52-261.41,547.85-203.46,43.98,26.2,61.21,113.38,48.49,245.5-9.6,99.75-40.76,271.98-134.63,526-2.61,7.07-9.3,11.44-16.42,11.44Z"/>
      <path class="st20" d="M1314.15,1280.13c-34.42-267.04,66.13-574.14,142.22-590.46,95.9-20.57,294.88,175.05,389.21,349.86"/>
      <path class="st20" d="M1845.57,1039.51l-100.4,45.43-431.02,195.18c-27.59-213.94,31.46-453.55,95.18-548.81,15.83-23.64,31.91-38.39,47.06-41.64,95.88-20.57,294.84,175.03,389.18,349.84Z"/>
      <path class="st12" d="M1745.17,1084.95l-431.02,195.18c-27.59-213.94,31.46-453.55,95.18-548.81,47.68,4.13,223.99,52.27,335.84,353.63Z"/>
      <path class="st21" d="M1314.13,1297.35c-8.53,0-15.94-6.34-17.06-15.02-34.19-265.3,63.61-589.74,155.69-609.49,106.41-22.83,310.26,177.44,407.97,358.51,4.52,8.37,1.39,18.81-6.98,23.33-8.36,4.52-18.81,1.39-23.33-6.98-96.97-179.71-290.92-358.24-370.45-341.2-25.57,5.48-67.96,72.12-99.55,188.87-33.79,124.95-44.44,264.38-29.21,382.55,1.22,9.43-5.44,18.06-14.87,19.27-.75.1-1.49.14-2.22.14Z"/>
      <path class="st4" d="M1456.28,800.74c25.48-14.67,93.06,22.51,156.7,114.27,39.73,57.28,70.74,116.89,72.7,153.48-57.37,21.02-192.22,77.19-327.83,142.89-8.85-179.58,56.83-386.69,98.43-410.64Z"/>
      <path class="st4" d="M1685.69,1068.47c-57.38,21.03-192.23,77.2-327.83,142.9-.16-2.74-.27-5.47-.33-8.2-1.76-46.73,1.43-95.05,7.79-141.4,17.55-127.61,59.34-239.8,89.44-260.05.48-.38,1.01-.71,1.53-.98,25.5-14.68,93.07,22.51,156.72,114.26,39.69,57.28,70.69,116.91,72.69,153.48Z"/>
      <path class="st10" d="M1681.72,1068.47c-57.38,21.03-192.23,77.2-327.83,142.9-.16-2.74-.27-5.47-.33-8.2-.22-5.97-.36-11.96-.43-17.97-.94-40.41.25-82.27,3.5-123.41,1.5.03,3.1.03,4.71-.02,35.79-.44,90.82-11.94,125.38-70.46,44.29-74.94-.3-145.67-35.95-189.59.48-.38,1.01-.71,1.53-.98,25.5-14.68,93.07,22.51,156.72,114.26,39.69,57.28,70.69,116.91,72.69,153.48Z"/>
      <path class="st14" d="M1548.13,1142.01c-3.92,0-7.8-1.31-10.96-3.85-39.11-31.38-59.9-58.39-63.54-82.56-4.09-27.02,5.44-42.46,14.15-50.65,11.94-11.21,28.52-15,44.39-15.41-4.55-11.16-7.36-24.1-4.34-36.83,2.12-8.91,8.07-21.38,24.38-30.23,23.2-12.61,67.08-4.29,91.93,11.07,2.29,1.42,4.23,3.35,5.66,5.64,23.21,37.27,51.3,89.79,53.38,128.38.41,7.69-4.24,14.74-11.46,17.38-31.61,11.56-82.7,32.36-136.66,55.62-2.23.96-4.59,1.43-6.93,1.43ZM1534.99,1024.5c-10.7,0-19.04,2.03-23.24,5.98-3.78,3.56-4.97,10.25-3.51,19.9.95,6.3,7.09,23.59,42.77,53.83,43.96-18.83,85.43-35.78,115.41-47.18-5.12-23.65-20.62-57.42-44.06-95.59-18.36-9.69-45.83-12.32-53.45-8.17-6.01,3.26-6.75,6.39-7.03,7.57-1.78,7.49,3.14,19.67,14.61,36.2,2.84,4.09,8.75,12.59,2.71,22.5-3.6,5.92-10.44,9.16-17.29,8.28-.31-.04-1.1-.17-2.33-.43-8.92-1.92-17.31-2.87-24.6-2.87Z"/>
      <path class="st21" d="M1341.93,1238.23l-1.28-25.99c-8.66-175.97,54.97-396.43,107.04-426.41h0c39.34-22.67,116.51,28.65,179.44,119.38,27.13,39.12,73.05,112.24,75.74,162.37l.68,12.71-11.95,4.38c-51.85,19-186.27,74.4-326.25,142.22l-23.42,11.35ZM1464.87,815.66c-28.54,16.44-92.59,191.55-90.61,368.74,121.94-58.14,236.55-105.88,292.52-127.21-6.6-31.25-31.15-79.31-67.94-132.36-63.94-92.18-122.47-115.78-133.97-109.16h0Z"/>
      <path class="st10" d="M1685.7,1068.52c-29.18,10.67-78.39,30.47-137.57,55.99-27.27-21.88-53.72-48.5-57.18-71.51-9.62-63.55,71.14-42.84,73.26-42.55,2.17.28-43.73-50.81-3.64-72.57,16.1-8.75,53.45-2.35,74.37,10.58,28.71,46.11,49.18,90.57,50.76,120.07Z"/>
      <path class="st21" d="M1545.43,1144.42l-8.08-6.48c-39.05-31.33-59.8-58.28-63.43-82.37-4.07-26.9,5.4-42.25,14.06-50.39,11.98-11.25,28.68-14.99,44.62-15.34-4.62-11.2-7.53-24.24-4.49-37.04,2.1-8.85,8.02-21.25,24.24-30.05,23.12-12.57,66.85-4.26,91.64,11.06l3.43,2.12,2.13,3.42c23.19,37.24,51.26,89.71,53.34,128.24l.68,12.72-11.96,4.38c-31.62,11.57-82.71,32.36-136.67,55.63l-9.51,4.1ZM1535.02,1024.22c-10.79,0-19.21,2.06-23.47,6.05-3.86,3.63-5.07,10.41-3.59,20.15.96,6.34,7.14,23.75,43,54.13,44.14-18.91,85.77-35.93,115.81-47.34-5.08-23.72-20.64-57.65-44.19-96.01-18.89-10.07-46.08-12.39-53.79-8.2-6.12,3.32-6.89,6.54-7.18,7.76-1.8,7.57,3.13,19.83,14.66,36.44,2.8,4.04,8.63,12.44,2.7,22.19l-5.83,9.57-11.18-1.43c-.3-.04-1.08-.16-2.31-.43-8.92-1.93-17.32-2.87-24.63-2.87Z"/>
      <path class="st20" d="M2163.39,1025.78c-169.81-78.51-382.15-84.51-424.64-84.87-41.49-.34-80.55,1.97-117.34,6.76-355.58,46.26-475.27,366.98-559.88,658.7,0,.2-100.03,113.02-82.49,269.15,24.39,217.13,310.28,502.55,910.2,504,370,.9,631.54-129.29,703.07-346.12,56.26-170.53,54.92-467-75.93-717.37"/>
      <path class="st20" d="M2620.15,1905.58c.01.1-.03.16-.02.27-6.03,47.33-15.58,90.42-27.82,127.56-71.55,216.84-333.08,347.03-703.06,346.13-599.93-1.47-885.81-286.89-910.23-504.01-12.05-107.57,31.66-194.62,60.02-238.4,12.85-19.75,22.46-30.71,22.51-30.77,84.58-291.73,204.28-612.45,559.88-658.67,36.74-4.8,75.83-7.11,117.33-6.78,42.51.36,254.81,6.34,424.65,84.84l352.96,290.26c102.33,195.75,125.42,419.67,103.78,589.56Z"/>
      <path class="st4" d="M2620.15,1905.58c.01.1-.03.16-.02.27-6.03,47.33-15.58,90.42-27.82,127.56-71.55,216.84-333.08,347.03-703.06,346.13-599.93-1.47-885.81-286.89-910.23-504.01-12.05-107.57,31.66-194.62,60.02-238.4,195.75.54,200.35,155.05,352.67,134.7,73.98-9.83,97.62-75.7,215.37-65.27,155.52,13.8,209.07,134.15,341.7,151.82,148.09,19.65,155.14-86,406.44-49.71,110.76,16.06,209.06,60.4,264.17,96.37.29.23.53.41.76.53Z"/>
      <path class="st4" d="M2620.13,1905.59c.04.09,0,.13,0,.26-.09.66-.18,1.33-.27,1.95-.57,4.38-1.15,8.75-1.81,13.04-.18,1.46-.4,2.92-.62,4.33-.66,4.29-1.33,8.53-2.03,12.73-3.09,18.52-6.76,36.3-10.96,53.18-1.11,4.51-2.25,8.97-3.45,13.35-2.7,9.99-5.61,19.67-8.66,28.96-71.57,216.84-333.11,347.04-703.05,346.15-499.16-1.24-780.94-199.03-875.55-390.54-19.14-38.64-30.59-77.01-34.7-113.48-12.02-107.6,31.65-194.65,60.04-238.42,195.76.53,200.35,155.08,352.65,134.7,74.01-9.81,97.66-75.69,215.38-65.25,155.53,13.79,209.06,134.13,341.69,151.81,148.1,19.67,155.13-85.99,406.45-49.69,110.74,16.05,209.06,60.39,264.15,96.37h.04v.04c.31.18.49.35.71.49Z"/>
      <path class="st10" d="M2620.17,1905.59c0,.09-.04.18-.04.26-.09.66-.18,1.33-.27,1.95-.57,4.38-1.15,8.75-1.81,13.04-.18,1.46-.4,2.92-.62,4.33-.66,4.29-1.33,8.53-2.03,12.73-3.09,18.52-6.76,36.3-10.96,53.18-1.11,4.51-2.25,8.97-3.45,13.35-2.7,9.99-5.61,19.67-8.66,28.96-71.57,216.84-333.11,347.04-703.05,346.15-499.16-1.24-780.94-199.03-875.55-390.54,107.91,126.97,376.7,283.38,800.49,296.55,357.29,11.1,688.11-59.77,778.78-311.41,7.69-21.22,20.11-44.16,26.44-69.05v-.04c.26.22.49.35.71.53h.04Z"/>
      <path class="st0" d="M980.26,1850.21c.51,14.86,1.94,29.56,4.3,44.04,17.77,8.59,37.49,15.21,58.63,19.3,97.03,18.77,186.79-23.15,200.42-93.6,13.63-70.45-54.01-142.83-151.04-161.6-21.29-4.12-42.27-5.32-62.12-3.95-25.17,44.46-53.1,113.12-50.19,195.81Z"/>
      <ellipse class="st0" cx="2257.63" cy="1960.57" rx="142.95" ry="207.48" transform="translate(113.79 4044.96) rotate(-85.17)"/>
      <g>
        <path class="st21" d="M1928.69,2379.11c237.51-23.55,526.45-88.52,635.05-326.31,24.15-56.27,34.87-119.46,41.33-180.61,17.77-189.26-20.14-379.43-88.69-556.15,135.1,201.24,167.43,524.99,84.22,752.17-103.25,250.28-426.66,323.58-671.92,310.91h0Z"/>
        <path class="st21" d="M2163.39,1025.78c-156.15-56.63-375.37-81.3-539.97-60.33-336.29,42.99-461.72,358.12-544.52,645.97,0,0,.7-4.32.7-4.32-.14,2.29-.76,4.88-1.88,7.19-1.96,3.79-2.64,3.89-3.66,5.29-54,67.65-85.04,155.94-78.66,242.61,14.83,177.9,184.13,314.48,332.31,391.81,70.71,36.74,146.94,64.9,223.53,87.57,11.12,2.99,22.19,6.34,33.32,9.5-91.66-11.7-182.75-34.71-268.61-72.3-150.82-64.84-291.78-181-341.68-342.43-36.46-116.12-2.52-246.07,71.95-339.85,73.9-267.62,200.14-622.96,572.56-666.52,172.78-20.07,391.58,12.26,544.6,95.8h0Z"/>
      </g>
      <path class="st4" d="M2123.7,1396.98c10.18-28.78-70.59-140.76-131.98-125.18-61.39,15.57-62.19,80.8-30.1,104.65,46.62,34.64,151.89,49.32,162.07,20.54Z"/>
      <path class="st4" d="M1340.84,1305.22c-.96-30.51,101.16-112.39,150.8-78.78,49.65,33.61,32.24,95.95-2.6,108.83-50.61,18.71-147.24.46-148.2-30.05Z"/>
      <path class="st4" d="M2538.04,878.19c-65.47-19-246.21,89.91-281.86,159.58-27.35,53.45,84.07,66.37,230.42,232.58,72.51-117.82,79.98-383.89,51.45-392.16Z"/>
      <path class="st4" d="M2486.6,1270.33c-.7-.81-1.4-1.58-2.1-2.34-145.29-163.97-255.54-177.01-228.3-230.2,35.62-69.7,216.35-178.59,281.82-159.61,3.67,1.05,6.74,6.4,9.16,15.1,16.41,59.12,2.58,274.4-60.57,377.05Z"/>
      <path class="st10" d="M2496.88,1242.47c-3.89,8.97-8,17.56-12.37,25.52-145.29-163.97-255.54-177.01-228.3-230.2,35.62-69.7,216.35-178.59,281.82-159.61,3.67,1.05,6.74,6.4,9.16,15.1,1.19,6.78,2.08,12.27,2.53,15.64-46.38,5.71-123.66,26.37-145.87,100.21-29.19,97.14,58.36,144.78,93.04,233.33Z"/>
      <path class="st14" d="M2486.6,1287.58c-4.92,0-9.64-2.11-12.92-5.84-68.68-78.01-128.24-120.69-171.73-151.86-47.67-34.17-82.12-58.85-61.09-99.94,39.27-76.73,226.38-190.21,301.99-168.27,8.17,2.37,14.43,9.04,18.59,19.82,22.38,57.98,5.25,291.61-60.17,397.9-2.86,4.65-7.76,7.67-13.2,8.13-.49.04-.98.06-1.46.06ZM2520.02,893.08c-64.78,0-216.92,90.8-248.51,152.53-6.46,12.63.62,20.52,50.49,56.27,39.04,27.98,96.49,69.15,161.14,138.96,54.56-111.72,61.33-314.24,46.35-346.99-2.89-.52-6.06-.77-9.47-.77ZM2533.25,894.73h.05-.05Z"/>
      <path class="st21" d="M2486.6,1287.55c-4.92,0-9.64-2.11-12.92-5.84-57.46-65.27-109.57-106.51-148.55-135.14-8.13-5.95-15.79-11.44-22.91-16.53-47.83-34.23-82.39-58.96-61.33-100.08,9.19-18.02,26.4-38.14,51.14-59.78,63.63-55.61,189.56-126.23,250.79-108.52,8.19,2.38,14.45,9.06,18.62,19.85,22.37,57.99,5.23,291.59-60.17,397.85-2.86,4.65-7.76,7.67-13.2,8.13-.49.04-.98.06-1.46.06ZM2520.33,893.14c-46.25,0-141.02,46.48-205.64,102.95-21.12,18.48-36.04,35.61-43.15,49.53-6.48,12.66.62,20.57,50.71,56.41,7.21,5.17,14.98,10.72,23.24,16.77,36.66,26.93,84.54,64.62,137.66,122.01,54.56-111.73,61.32-314.2,46.33-346.95-2.78-.49-5.84-.73-9.16-.73Z"/>
      <path class="st21" d="M2391.14,1115.93c-4.47,19.86-24.02,27.42-41.05,29.82-3.16.64-5.39,1.51-5.55,1.61-6.11,4.11-13.98,3.61-19.48-.69-20.78-15.8-42.95-29.91-63.29-47.22-17.7-14.45-34.15-38.07-23.65-63.14,11.11-26.57,33.45-47.66,53.86-66.18,2.71-2.41,5.98-3.78,9.33-4.15,24.69-2.06,48.29-2.65,70.59,13.8,17.48,14.02,24.58,43.29,9.02,61.31-14.04,16.65-36.64,18.9-55.33,22.27,4.5-1.61,7.04-8.62,3.15-12.99-.05-.12-.85-.81-.67-.66,25.28,14.54,71.27,27.3,63.06,66.21h0ZM2356.71,1107.35c1.27-4.3-.48-7.76-3.33-12.68-7.31-12.5-21.4-22.91-34.6-30.44-1.73-1.18-3.38-2.41-4.44-4.63-2.54-4.63.39-10.93,5.08-12.39,1.44-.65,8.17-1.95,9.75-2.34,12.59-2.95,33.54-10.76,30.64-25.27-1-3.68-4.26-8.78-7.58-11.42-5.03-3.37-12.35-5.8-21.3-7.23-8.16-1.34-16.94-1.53-25.68-.67l9.49-4.17c-17.04,15.31-33.39,30.58-43.57,50.49-2.15,4.84-2.66,7.64,0,12.25,2.33,4.24,7.47,9.61,13.22,14.63,19.19,16.06,40.5,30.19,61.18,45.22,0,0-19.47-.69-19.47-.69,10.86-6.95,21.63-6,30.72-10.43-.05-.11-.43.59-.1-.23h0Z"/>
      <g>
        <path class="st2" d="M1503.77,1882.26c27.58,48.32-2.84,178.3,65.65,199.25,91.47,27.98,130.06-127.03,136.79-175.42"/>
        <path class="st21" d="M1706.2,1906.1c-2.75,19.79-10.84,57.43-25.72,93.12-21.41,51.52-57.04,98.82-111.08,82.3-31.54-9.66-42.1-42.4-47.02-79.67-5.76-43.71-3.75-93.53-18.61-119.62l76.26-42.96,126.17,66.84Z"/>
        <path class="st3" d="M1680.48,1999.22c-21.41,51.52-57.04,98.82-111.08,82.3-31.54-9.66-42.1-42.4-47.02-79.67,17.53-7.13,40.62-8.08,66.28,12.02,0,0,52.62-34.89,91.81-14.65Z"/>
        <path class="st21" d="M1617.81,1999.68c-14.19,6.07-31.06,16.49-40.36,40.8,0,0-12.39-44.77,11.65-60.33,17.77-11.5,37.01,15.99,28.71,19.53Z"/>
        <path class="st21" d="M1590.87,2095.64c-8.01,0-16.22-1.28-24.6-3.84-49.88-15.26-54.41-76.29-58.41-130.13-2.22-29.88-4.31-58.1-13.43-74.09-2.94-5.16-1.15-11.73,4.01-14.68,5.16-2.94,11.73-1.15,14.68,4.01,11.53,20.21,13.8,50.78,16.21,83.16,3.66,49.26,7.44,100.19,43.24,111.14,17.41,5.33,33.08,3.32,47.91-6.14,47.5-30.3,70.3-126.11,75.07-160.47.83-5.89,6.16-10.02,12.14-9.17,5.88.82,9.99,6.25,9.17,12.14-6.42,46.13-32.4,142.2-84.81,175.64-12.97,8.28-26.75,12.42-41.18,12.42Z"/>
        <path class="st4" d="M1749.87,1868.12c-20.88,37.06-48.07,57.35-90.51,57.71-46.03.4-69.83-39.26-82.31-68.02-10.32,21.8-38.12,35.94-63.43,29.87-51.33-12.3-53.9-84.38-53.9-84.38,0,0,53.12-68.25,157.02-44.56,103.9,23.68,133.13,109.38,133.13,109.38Z"/>
        <path class="st21" d="M1755.5,1871.29c-8.2,17.66-19.74,35.08-36.88,47.73-34.92,25.14-88.86,28.14-119.74-4.49-15.43-15.23-25.77-33.31-33.94-51.46l24.05.4c-29.69,57.89-107.74,47.49-127.81-12.05-5.75-15.59-8.24-31.28-7.92-47.88.09-3.57,3.06-6.38,6.63-6.29,3.33.08,5.93,2.65,6.28,5.83,2.31,13.92,6.6,28.31,12.8,40.58,6.29,12.3,14.94,22.69,25.71,28.01,21.1,11.12,49.42.73,60.43-19.51,0,0,13.12-25.55,13.12-25.55,9.73,22.91,20.25,52.75,38.72,68.86,24.27,23,62.82,22.51,90.35,6.62,14.48-8.51,26.6-21.99,36.94-37.13,4.35-6.51,14.58-.81,11.25,6.34h0Z"/>
        <path class="st21" d="M1585.93,1791.05c-13.52-3.48-9.34,31.52-24.27,59.51-5.77,10.81,41.54,29.12,34.31,8.81-16.05-45.1,9.15-63.38-10.04-68.31Z"/>
      </g>
      <path class="st10" d="M1640.49,1895.91c-24.67-7.36-46.1-59.22-37.04-81.76,6.77-16.82,38.46-24.62,36.03-10.56-17,98.13,84.15,71.3,84.15,71.3,0,0-47.4,31.68-83.14,21.02Z"/>
      <path class="st10" d="M1511.94,1860.43c30.84,13.04,52.58-37.16,59.51-60.45,5.17-17.38-7.55-25.41-13.06-12.25-38.5,92.03-84.32,19.72-84.32,19.72,0,0,8.05,40.37,37.86,52.97Z"/>
      <path class="st21" d="M1517.63,1736.45c-3.8,26.63,22.53,54.38,43.33,71.78,14.4,12.05,34.43,14.9,51.62,7.36,24.83-10.9,57.87-30.19,61.66-56.81,6.17-43.25-150.44-65.57-156.61-22.33Z"/>
      <g class="st19">
        <path class="st5" d="M1556.11,1732.38c-.7,4.93,9.66,10.84,17.73,14.66,5.59,2.65,12.99,3.7,19.1,2.72,8.81-1.41,20.42-4.2,21.12-9.12,1.14-8-56.8-16.26-57.94-8.26Z"/>
      </g>
      <path class="st21" d="M1916.92,2425.23c-24.44,0-49.47-.5-75.06-1.5-177.12-6.97-343.69-37.5-434.71-79.69-215.94-100.09-359.85-223.05-439.94-375.91-78.98-150.74-89.63-320.03-89.63-465.76,0-558.65,454.49-1013.13,1013.13-1013.13s1013.13,454.49,1013.13,1013.13c0,185.92-73.99,383.35-208.35,555.92-119.41,153.37-273.02,268.74-411.21,308.92-79.18,37.54-210.47,58.01-367.36,58.01ZM1890.71,523.68c-539.66,0-978.7,439.04-978.7,978.7,0,302.6,38.97,592.28,509.62,810.42,184.21,85.38,663.07,112.02,849.06,22.75.87-.42,1.77-.76,2.7-1.03,131.81-37.87,279.44-149.05,394.94-297.38,129.67-166.56,201.09-356.47,201.09-534.77,0-539.66-439.04-978.7-978.7-978.7Z"/>
      <path class="st11" d="M1389.88,2317.72s462.44,118.82,895.68,25.84c0,0,15.29,56.29-39.35,97.88-102.36,77.92-689.92,106.02-844.98-14.63-57.05-44.39-11.36-109.09-11.36-109.09Z"/>
      <path class="st23" d="M1825.4,2474.23c-189.44,0-343.87-28.59-403.01-74.6-16.66-12.96-17.29-29.14-13.73-42.09,25.82,50.44,220.91,98.08,507.97,90.74,115.07-2.94,260.15-22.83,331.56-62.22-3.99,9.12-10.95,18.94-22.83,27.97-38.87,29.59-199.11,60.2-399.96,60.2Z"/>
      <path class="st21" d="M1826.37,2525.88c-110.42,0-338.34-9.73-435.7-85.49-55.4-43.1-33.94-105.58-14.85-132.6,4.12-5.84,11.43-8.53,18.34-6.74,4.58,1.18,463.67,116.69,887.79,25.68,8.94-1.93,17.83,3.49,20.23,12.32.75,2.75,17.6,68.03-45.54,116.09-61.04,46.46-256.87,69.19-413,70.66-5.37.05-11.15.08-17.28.08ZM1398.25,2337.43c-8.37,16.73-18.99,50.46,13.56,75.79,65.37,50.86,226.6,80.01,431.51,78.15,181.21-1.7,346.26-28.46,392.46-63.63,28.13-21.41,34.08-47.09,34.56-63.44-386.97,77.49-795.7-9.13-872.09-26.87Z"/>
      <path class="st21" d="M2128.54,3105.7c23.02-37.82,66.66-56.62,108.27-64.39,82.61-15.15,167.53,21.22,224.1,79.78,28.28,28.69,51.07,61.84,68.94,96.98-24.49-30.92-50.78-59.95-80.44-84.37-70.08-59.66-173.6-89.2-258.92-46.39-15.2,7.61-30.28,18.26-39.9,31.83,0,0-22.05-13.44-22.05-13.44h0Z"/>
      <path class="st21" d="M1578.26,3299.99c-3.74,0-7.43-1.61-9.99-4.71-26.15-31.83-52.33-78.52-65.61-103.51-6.26-11.79-7.86-25.42-4.48-38.39l4.23-16.26c1.86-7.13.82-14.69-2.84-20.74-24.32-40.23-44.85-103.29-45.72-105.96-2.2-6.78,1.52-14.06,8.31-16.26,6.75-2.18,14.07,1.52,16.26,8.31.2.62,20.49,62.9,43.25,100.54,7.24,11.98,9.33,26.78,5.73,40.62l-4.23,16.25c-1.74,6.68-.92,13.71,2.3,19.77,12.83,24.15,38.03,69.15,62.75,99.23,4.53,5.51,3.73,13.65-1.78,18.17-2.4,1.98-5.31,2.94-8.19,2.94Z"/>
      <g class="st9">
        <path class="st5" d="M1843.96,763.33c1.67,71.62-190.98,131.51-347.4,236.28-191.37,128.17-293.57,313.29-357.73,289.85-102.42-37.42,26.27-424.58,278.67-565.93,212.93-119.24,424.26-54.07,426.45,39.79Z"/>
      </g>
      <g class="st9">
        <path class="st5" d="M2262.04,789.74c-60.89,37.74-102.08,41.35-234.93,23.95-174.93-22.91-212.76-247.29,81.83-199.57,126.41,20.48,225.33,130.85,153.09,175.62Z"/>
      </g>
      <g>
        <path class="st21" d="M1961.72,1477.32c70.75,7.58,118.67,96.92,107.03,199.55-11.64,102.63-78.43,179.67-149.19,172.09-70.75-7.58-118.67-96.92-107.03-199.55,11.64-102.62,78.43-179.67,149.19-172.09Z"/>
        <path class="st5" d="M1957.68,1520.48c20.12,13.88,22.39,50.13,5.06,80.96-17.33,30.83-47.69,44.58-67.81,30.7-20.12-13.88-22.39-50.13-5.06-80.96,17.33-30.83,47.69-44.58,67.81-30.7Z"/>
        <path class="st8" d="M1986.23,1752.44c8.81,9.94,6.09,29.09-6.07,42.76-12.17,13.68-29.18,16.7-37.99,6.76-8.81-9.94-6.09-29.09,6.07-42.76,12.17-13.67,29.18-16.7,37.99-6.76Z"/>
      </g>
      <g>
        <ellipse class="st21" cx="1378" cy="1598.28" rx="169.86" ry="117.02" transform="translate(-372.02 2777.6) rotate(-83.21)"/>
        <path class="st5" d="M1393.47,1468.71c18.28,12.61,20.33,45.53,4.59,73.53-15.74,28.01-43.32,40.49-61.59,27.88-18.28-12.61-20.33-45.53-4.59-73.53,15.74-28.01,43.32-40.49,61.59-27.88Z"/>
        <path class="st8" d="M1419.41,1679.39c8.01,9.03,5.54,26.42-5.52,38.84-11.05,12.42-26.5,15.17-34.5,6.14-8.01-9.03-5.54-26.42,5.52-38.84,11.05-12.42,26.5-15.17,34.5-6.14Z"/>
      </g>
    </g>
  </g>
</svg>